<?xml version="1.0" standalone="no"?>
<!DOCTYPE svg PUBLIC "-//W3C//DTD SVG 20010904//EN"
 "http://www.w3.org/TR/2001/REC-SVG-20010904/DTD/svg10.dtd">
<svg version="1.0" xmlns="http://www.w3.org/2000/svg"
 width="256.000000pt" height="256.000000pt" viewBox="0 0 256.000000 256.000000"
 preserveAspectRatio="xMidYMid meet">

<g transform="translate(0.000000,256.000000) scale(0.100000,-0.100000)"
fill="#333333" stroke="none">
<path d="M1125 2549 c-303 -42 -561 -172 -766 -385 -170 -178 -278 -383 -330
-625 -32 -147 -32 -371 0 -519 107 -501 490 -884 992 -991 147 -32 371 -32
518 0 502 107 885 490 992 991 18 83 22 137 22 260 0 123 -4 177 -22 260 -107
501 -496 889 -992 990 -120 25 -311 33 -414 19z m390 -469 c276 -88 479 -293
567 -570 20 -65 23 -95 23 -230 0 -135 -3 -165 -23 -230 -88 -279 -293 -484
-572 -572 -65 -20 -95 -23 -230 -23 -135 0 -165 3 -230 23 -279 88 -484 293
-572 572 -20 65 -23 95 -23 230 0 135 3 165 23 230 96 303 338 526 643 590 24
5 107 8 184 6 111 -3 155 -8 210 -26z"/>
</g>
<g transform="translate(0.000000,256.000000) scale(0.100000,-0.100000)"
fill="#cc0033" stroke="none">
<path d="M1135 1791 c-229 -65 -385 -273 -385 -511 0 -295 235 -530 530 -530
295 0 530 235 530 530 0 242 -163 454 -396 514 -79 21 -203 19 -279 -3z"/>
</g>
</svg>
